Land_normalized_Motion_pl04
version=1
nRows=22
nColumns=43
inDegrees=yes
endheader
time		pelvis_tilt		pelvis_list		pelvis_rotation		pelvis_tx		pelvis_ty		pelvis_tz		hip_flexion_r		hip_adduction_r		hip_rotation_r		knee_angle_r		ankle_angle_r		subtalar_angle_r		mtp_angle_r		hip_flexion_l		hip_adduction_l		hip_rotation_l		knee_angle_l		ankle_angle_l		subtalar_angle_l		mtp_angle_l		lumbar_extension		lumbar_bending		lumbar_rotation		neck_flexion		neck_lateral_bending		neck_rotation		arm_flex_r		arm_add_r		arm_rot_r		elbow_flex_r		pro_sup_r		wrist_flex_r		wrist_dev_r		hand_finger_flex_r		arm_flex_l		arm_add_l		arm_rot_l		elbow_flex_l		pro_sup_l		wrist_flex_l		wrist_dev_l		hand_finger_flex_l		
0.960000		-0.772189		0.996888		87.284628		0.022364		0.985991		0.609102		38.585357		-3.604242		-4.415644		-41.300060		-25.921867		5.846243		9.832474		32.247234		-9.145292		-15.554340		-39.146003		-24.544142		11.835229		27.887073		-34.563683		-0.474121		-0.713362		-25.976342		-5.614187		3.716003		-55.915764		-20.067986		-35.607937		82.096345		118.760724		-6.818839		-7.527172		-21.714931		-59.425809		-13.082248		-33.166970		87.532739		122.323945		-10.463464		-12.607608		12.131327		
0.963182		-0.827588		1.123579		87.279023		0.022352		0.972046		0.604665		39.106567		-3.575139		-3.995036		-42.088194		-26.288805		6.031787		9.908833		32.745954		-9.077195		-15.050741		-39.903524		-24.723176		11.863534		28.035338		-34.878400		-0.550845		-0.859987		-25.477473		-5.622104		3.643835		-55.336596		-20.249937		-35.840614		82.295528		119.023839		-6.829344		-7.668692		-21.693853		-58.950111		-12.822724		-33.739743		87.788592		122.366613		-10.472900		-12.650997		12.247314		
0.966364		-0.913214		0.997569		87.343982		0.022089		0.957694		0.600005		39.860083		-3.654528		-3.761090		-42.840669		-26.123670		6.330069		10.738846		33.531586		-8.922498		-14.535491		-40.662144		-24.591881		11.716994		28.878070		-34.819080		-0.591796		-1.088370		-25.354212		-5.594923		3.764810		-54.656393		-20.540612		-36.035386		82.321782		119.751529		-6.643867		-7.816192		-21.621453		-58.366730		-12.666226		-34.265900		87.844313		122.915368		-10.161413		-12.643281		12.594443		
0.969545		-0.982078		0.930888		87.376070		0.021914		0.943414		0.595601		40.514242		-3.613160		-3.326918		-43.513976		-25.328294		6.470828		11.742149		34.252273		-8.740142		-13.897725		-41.446402		-23.740624		11.478699		29.868948		-34.894862		-0.646915		-1.224722		-24.954476		-5.577152		3.686311		-53.940058		-20.813767		-36.209017		82.371921		120.352989		-6.489630		-7.906831		-21.585232		-57.672713		-12.494401		-34.831040		87.989283		123.388430		-9.994979		-12.603883		12.846438		
0.972727		-1.014143		1.055354		87.328545		0.021843		0.929556		0.591078		40.855122		-3.488813		-2.928932		-44.164060		-23.490522		6.591755		13.060760		34.713483		-8.631292		-13.403590		-42.387028		-21.757358		11.384102		30.932147		-35.180939		-0.695706		-1.250507		-24.567633		-5.597542		3.539040		-53.217853		-21.149042		-36.281787		82.464912		120.516307		-6.415688		-7.918090		-21.627662		-56.909397		-12.544367		-35.134053		88.070824		123.663380		-9.993517		-12.471280		12.841713		
0.975909		-1.022863		0.933435		87.413279		0.021543		0.915036		0.586694		41.396784		-3.466220		-2.690834		-44.923112		-20.893221		7.364099		18.997737		35.551078		-8.492666		-12.740270		-43.680377		-18.976334		11.627037		35.008928		-35.151755		-0.650242		-1.403879		-24.391696		-5.545165		3.449746		-52.465247		-21.503789		-36.427163		82.602633		121.089379		-6.040880		-7.941538		-21.908358		-56.109131		-12.457335		-35.707512		88.242888		124.881253		-9.544355		-12.289438		12.796641		
0.979091		-1.022863		0.980441		87.287440		0.021516		0.901261		0.582465		41.599077		-3.182143		-2.195993		-45.671609		-16.792876		7.522516		19.859923		36.049102		-8.421257		-12.351089		-45.141565		-14.636738		11.607802		35.618800		-35.396880		-0.702391		-1.330325		-23.884778		-5.556429		3.479233		-51.568601		-21.984332		-36.332993		82.555141		121.026139		-6.002038		-7.952924		-21.949017		-55.147397		-12.663098		-35.847982		88.183266		124.706378		-9.622502		-12.156456		12.664348		
0.982273		-0.962814		0.956268		87.232195		0.021492		0.887015		0.578160		41.868022		-2.957621		-1.904638		-46.770335		-11.445112		8.750528		20.455482		36.727459		-8.438971		-11.906633		-47.134484		-9.227287		12.411748		35.800514		-35.504658		-0.671440		-1.310161		-23.581016		-5.518463		3.525838		-50.758663		-22.512949		-36.210897		82.653366		121.014415		-5.942514		-7.989409		-21.980342		-54.250169		-12.825997		-36.111001		88.233120		124.801381		-9.560656		-11.958327		12.540472		
0.985455		-0.880662		1.014054		87.304590		0.021393		0.873168		0.574149		42.030224		-2.754462		-1.725964		-48.185249		-4.982228		9.771653		16.630514		37.337745		-8.377285		-11.391617		-49.401829		-2.897595		13.361684		30.606237		-35.805706		-0.581451		-1.361604		-22.931655		-5.464705		3.350273		-49.782044		-23.007928		-36.043719		82.691067		120.834275		-5.894662		-7.947475		-22.261032		-53.187978		-12.916819		-36.575385		88.362507		125.221049		-9.052757		-11.803600		11.759016		
0.988636		-0.749211		0.936419		87.146002		0.021494		0.859338		0.570374		42.457947		-2.305244		-1.357497		-49.796292		0.524541		9.913521		16.484783		38.059603		-8.508397		-11.209054		-51.759632		2.685298		13.148468		30.536842		-35.953384		-0.530862		-1.209749		-22.432249		-5.454407		3.527440		-48.662084		-23.577683		-35.876184		82.609443		120.914385		-5.839013		-7.979157		-22.275553		-52.054152		-13.202634		-36.717380		88.291552		125.109107		-9.111273		-11.720444		11.605902		
0.991818		-0.554345		0.673009		87.222670		0.021292		0.845175		0.566933		43.389468		-1.968115		-1.234451		-52.101987		6.749816		10.313870		8.422644		39.231192		-8.565084		-10.711444		-54.519019		8.607382		13.365510		23.928694		-35.940220		-0.284885		-1.222752		-21.848809		-5.446969		3.558297		-47.572000		-24.233278		-35.546098		82.616312		120.705615		-5.949260		-7.952065		-22.692053		-50.877348		-13.445006		-36.967655		88.253132		125.074839		-8.907460		-11.704346		10.992457		
0.995000		-0.398783		0.741485		87.174351		0.021457		0.832140		0.563777		44.313266		-1.522548		-0.900916		-54.818475		11.351597		10.006212		5.690105		40.098023		-8.664497		-10.323422		-57.229241		13.007620		12.932572		21.726691		-36.410962		-0.200896		-1.123260		-20.962498		-5.401097		3.480013		-46.206920		-24.749720		-35.308998		82.532384		120.683382		-5.936464		-7.936069		-22.833742		-49.542126		-13.757576		-37.222213		88.278667		125.023282		-8.933590		-11.655607		10.715005		
0.998182		-0.204073		0.327611		87.095295		0.021591		0.818351		0.561204		46.364860		-0.966540		-0.484551		-58.209448		14.140314		9.459259		5.376831		41.901804		-8.881377		-9.786132		-60.342393		16.153959		12.422860		21.576218		-36.391750		-0.065657		-1.036681		-20.056608		-5.296798		3.726434		-44.808405		-25.443977		-34.923110		82.461476		120.814143		-5.947058		-7.998623		-22.939816		-48.152536		-13.989775		-37.510828		88.216383		124.869387		-9.153366		-11.644511		10.566701		
1.001364		-0.090623		-0.165822		87.162024		0.021620		0.804822		0.559103		48.955422		-0.477926		-0.098278		-62.044472		15.417882		7.956240		5.064345		44.112043		-8.865648		-8.945187		-63.602089		17.985531		11.253747		21.322922		-36.369321		0.056996		-1.079741		-19.021726		-5.236943		3.745078		-43.205668		-26.028903		-34.515791		82.295453		120.862694		-6.057443		-7.980574		-23.131276		-46.721277		-14.371904		-37.743256		88.190974		124.710409		-9.419944		-11.662245		10.407152		
1.004545		0.068821		-1.199494		87.357502		0.021499		0.790464		0.557472		52.519549		0.053082		0.240300		-66.163692		15.375007		6.178730		4.432116		47.307917		-8.780892		-7.792281		-67.106712		18.823361		10.009439		20.661886		-35.768122		0.321537		-1.232522		-18.070940		-5.121936		3.887872		-41.568012		-26.700146		-33.953636		82.101899		120.919430		-6.223585		-7.975482		-23.485503		-45.253451		-14.742858		-37.971928		88.040219		124.462520		-9.823550		-11.677559		10.175169		
1.007727		0.188473		-1.874927		87.549041		0.021218		0.777205		0.555831		55.817121		0.492825		0.505337		-70.179757		14.536660		4.549710		4.117060		50.242495		-8.611210		-6.651309		-70.590630		19.009229		8.931242		20.176621		-35.620947		0.539611		-1.379091		-16.946125		-4.993423		3.978241		-39.800395		-27.341368		-33.437634		81.891971		121.011280		-6.320190		-7.960260		-23.827345		-43.675931		-15.175305		-38.129589		87.924425		124.220493		-10.277745		-11.633786		9.952788		
1.010909		0.323189		-2.469840		87.755369		0.020951		0.764457		0.554297		59.004112		0.865818		0.618661		-73.925336		13.148715		3.061592		4.121802		53.180951		-8.409012		-5.508372		-73.991640		18.707118		7.976764		19.894796		-35.616211		0.774209		-1.528891		-15.698216		-4.841168		4.092394		-37.938297		-27.991738		-32.875721		81.674603		121.166551		-6.401955		-7.942709		-24.184864		-42.045298		-15.648107		-38.250663		87.817825		123.936843		-10.831321		-11.565242		9.719826		
1.014091		0.468343		-2.828629		87.913959		0.020602		0.752603		0.552781		61.762068		1.176935		0.636666		-77.297958		11.692490		1.887997		4.402712		55.810908		-8.210541		-4.461073		-77.247614		18.207740		7.199341		19.836788		-35.939809		0.995531		-1.631292		-14.290374		-4.675063		4.215892		-35.967275		-28.647725		-32.330416		81.458192		121.362963		-6.476671		-7.911216		-24.525317		-40.318509		-16.119440		-38.335190		87.717255		123.624222		-11.440745		-11.474859		9.490132		
1.017273		0.675371		-3.022253		88.054018		0.020451		0.741578		0.551351		64.093469		1.449869		0.496647		-80.286615		10.330187		0.935100		5.173239		58.142617		-8.040628		-3.434829		-80.273136		17.655018		6.499364		20.096485		-36.492814		1.235905		-1.705264		-12.840404		-4.517011		4.399226		-33.830215		-29.344710		-31.637061		81.177507		121.647928		-6.524848		-7.851726		-24.911079		-38.575253		-16.732027		-38.304978		87.585419		123.228529		-12.143998		-11.396480		9.280630		
1.020455		0.852873		-2.825597		88.067892		0.020273		0.731962		0.549993		65.670063		1.690359		0.366664		-82.853349		9.367234		0.356244		6.509321		59.803762		-7.904707		-2.609590		-83.022128		17.178478		5.952017		20.778796		-37.597660		1.389477		-1.696304		-11.134475		-4.356468		4.606552		-31.542744		-30.027255		-30.976511		80.948471		121.976472		-6.551184		-7.775752		-25.307553		-36.690063		-17.294298		-38.282772		87.488804		122.755247		-12.887250		-11.302909		9.159026		
1.023636		0.898059		-2.303616		87.899101		0.020319		0.723474		0.548739		66.648778		1.939447		0.419378		-85.150369		9.011814		0.402918		7.012840		60.839251		-7.826977		-2.071556		-85.534149		16.989514		5.703183		21.117783		-39.161080		1.287873		-1.534343		-9.193668		-4.168315		4.481752		-29.253110		-30.584451		-30.468144		80.810984		122.168918		-6.525217		-7.724346		-25.398439		-34.672647		-17.925913		-38.289960		87.537963		122.534885		-13.223899		-11.211283		9.088740		
1.026818		1.072940		-1.411668		87.812436		0.020229		0.716508		0.547579		66.923515		2.151622		0.303928		-87.089079		8.841723		0.211990		8.724398		61.242743		-7.737136		-1.487174		-87.738704		16.754954		5.240915		22.421416		-41.239274		1.342292		-1.592465		-7.158967		-3.989215		4.982419		-26.525382		-31.327653		-29.525586		80.586599		122.708681		-6.682184		-7.636846		-25.675463		-32.701698		-18.445607		-38.364841		87.579293		121.770841		-14.024216		-11.077099		9.144119		
